<svg width="1600" height="900" viewBox="0 0 1600 900" fill="none" xmlns="http://www.w3.org/2000/svg">
  <rect width="1600" height="900" rx="32" fill="#F7F8F4"/>
  <rect x="40" y="40" width="1520" height="220" rx="40" fill="url(#paint0_linear)"/>
  <rect x="84" y="92" width="120" height="20" rx="10" fill="#FDBA74"/>
  <rect x="84" y="130" width="480" height="42" rx="20" fill="#FFFFFF"/>
  <rect x="84" y="190" width="620" height="18" rx="9" fill="#CBD5E1"/>
  <rect x="40" y="292" width="360" height="180" rx="30" fill="#FFFFFF"/>
  <rect x="420" y="292" width="360" height="180" rx="30" fill="#FFFFFF"/>
  <rect x="800" y="292" width="360" height="180" rx="30" fill="#FFFFFF"/>
  <rect x="1180" y="292" width="380" height="180" rx="30" fill="#FFFFFF"/>
  <rect x="76" y="330" width="150" height="14" rx="7" fill="#94A3B8"/>
  <rect x="456" y="330" width="150" height="14" rx="7" fill="#94A3B8"/>
  <rect x="836" y="330" width="150" height="14" rx="7" fill="#94A3B8"/>
  <rect x="1216" y="330" width="150" height="14" rx="7" fill="#94A3B8"/>
  <rect x="76" y="362" width="220" height="40" rx="12" fill="#0F172A"/>
  <rect x="456" y="362" width="220" height="40" rx="12" fill="#0F172A"/>
  <rect x="836" y="362" width="220" height="40" rx="12" fill="#0F172A"/>
  <rect x="1216" y="362" width="220" height="40" rx="12" fill="#0F172A"/>
  <rect x="40" y="510" width="492" height="330" rx="30" fill="#FFFFFF"/>
  <rect x="554" y="510" width="492" height="330" rx="30" fill="#FFFFFF"/>
  <rect x="1068" y="510" width="492" height="330" rx="30" fill="#FFFFFF"/>
  <rect x="76" y="548" width="190" height="18" rx="9" fill="#15202B"/>
  <rect x="590" y="548" width="190" height="18" rx="9" fill="#15202B"/>
  <rect x="1104" y="548" width="190" height="18" rx="9" fill="#15202B"/>
  <rect x="76" y="602" width="420" height="18" rx="9" fill="#E2E8F0"/>
  <rect x="590" y="602" width="420" height="18" rx="9" fill="#E2E8F0"/>
  <rect x="1104" y="602" width="420" height="18" rx="9" fill="#E2E8F0"/>
  <rect x="76" y="644" width="310" height="18" rx="9" fill="#E2E8F0"/>
  <rect x="590" y="644" width="310" height="18" rx="9" fill="#E2E8F0"/>
  <rect x="1104" y="644" width="310" height="18" rx="9" fill="#E2E8F0"/>
  <rect x="76" y="710" width="160" height="40" rx="20" fill="#10B981"/>
  <rect x="590" y="710" width="160" height="40" rx="20" fill="#10B981"/>
  <rect x="1104" y="710" width="160" height="40" rx="20" fill="#10B981"/>
  <defs>
    <linearGradient id="paint0_linear" x1="40" y1="40" x2="1560" y2="260" gradientUnits="userSpaceOnUse">
      <stop stop-color="#0F172A"/>
      <stop offset="0.6" stop-color="#1E293B"/>
      <stop offset="1" stop-color="#334155"/>
    </linearGradient>
  </defs>
</svg>
