<svg width="1600" height="900" viewBox="0 0 1600 900" fill="none" xmlns="http://www.w3.org/2000/svg">
  <rect width="1600" height="900" rx="32" fill="#F7F8F4"/>
  <rect x="40" y="34" width="1520" height="74" rx="28" fill="#FFFFFF"/>
  <rect x="74" y="55" width="48" height="48" rx="16" fill="#0F766E"/>
  <rect x="138" y="60" width="190" height="16" rx="8" fill="#15202B"/>
  <rect x="138" y="84" width="112" height="10" rx="5" fill="#94A3B8"/>
  <rect x="372" y="52" width="550" height="38" rx="19" fill="#F8FAFC"/>
  <rect x="972" y="54" width="86" height="34" rx="17" fill="#ECFDF5"/>
  <rect x="1080" y="54" width="86" height="34" rx="17" fill="#ECFDF5"/>
  <rect x="1188" y="54" width="146" height="34" rx="17" fill="#0F172A"/>
  <rect x="40" y="138" width="1520" height="278" rx="40" fill="url(#paint0_linear)"/>
  <circle cx="1298" cy="224" r="120" fill="#BFDBFE" fill-opacity="0.4"/>
  <circle cx="160" cy="180" r="84" fill="#BBF7D0" fill-opacity="0.5"/>
  <rect x="86" y="174" width="180" height="34" rx="17" fill="#FFFFFF"/>
  <rect x="86" y="234" width="640" height="54" rx="22" fill="#15202B"/>
  <rect x="86" y="304" width="560" height="18" rx="9" fill="#64748B"/>
  <rect x="86" y="338" width="470" height="18" rx="9" fill="#94A3B8"/>
  <rect x="86" y="382" width="194" height="48" rx="24" fill="#0F172A"/>
  <rect x="296" y="382" width="210" height="48" rx="24" fill="#FFFFFF"/>
  <rect x="1054" y="176" width="420" height="102" rx="30" fill="#0F172A"/>
  <rect x="1054" y="298" width="420" height="92" rx="30" fill="#10B981"/>
  <rect x="40" y="458" width="300" height="364" rx="30" fill="#FFFFFF"/>
  <rect x="372" y="458" width="1188" height="70" rx="26" fill="#FFFFFF"/>
  <rect x="372" y="552" width="372" height="270" rx="28" fill="#FFFFFF"/>
  <rect x="764" y="552" width="372" height="270" rx="28" fill="#FFFFFF"/>
  <rect x="1156" y="552" width="372" height="270" rx="28" fill="#FFFFFF"/>
  <rect x="404" y="584" width="308" height="150" rx="24" fill="#E2E8F0"/>
  <rect x="796" y="584" width="308" height="150" rx="24" fill="#E2E8F0"/>
  <rect x="1188" y="584" width="308" height="150" rx="24" fill="#E2E8F0"/>
  <rect x="404" y="754" width="176" height="16" rx="8" fill="#15202B"/>
  <rect x="796" y="754" width="176" height="16" rx="8" fill="#15202B"/>
  <rect x="1188" y="754" width="176" height="16" rx="8" fill="#15202B"/>
  <defs>
    <linearGradient id="paint0_linear" x1="40" y1="138" x2="1560" y2="416" gradientUnits="userSpaceOnUse">
      <stop stop-color="#F0FDF4"/>
      <stop offset="0.55" stop-color="#FFFFFF"/>
      <stop offset="1" stop-color="#EFF6FF"/>
    </linearGradient>
  </defs>
</svg>
